<svg width="24" height="24" xmlns="http://www.w3.org/2000/svg">
    <g fill="#37BF21" fill-rule="nonzero">
        <path d="M16.107 8.814c-2.034.105-3.802.722-5.238 2.115-1.45 1.407-2.113 3.132-1.932 5.27-.795-.099-1.52-.206-2.247-.269-.25-.021-.55.01-.763.129-.708.4-1.385.85-2.188 1.353.147-.668.242-1.251.411-1.813.124-.413.066-.643-.314-.91-2.442-1.725-3.47-4.305-2.701-6.96.714-2.457 2.464-3.946 4.841-4.724 3.246-1.059 6.893.022 8.867 2.6a6.064 6.064 0 0 1 1.264 3.209zm-9.36-.828c.019-.486-.403-.923-.904-.938a.911.911 0 0 0-.947.88.9.9 0 0 0 .892.935.926.926 0 0 0 .959-.877zm4.883-.938c-.5.009-.925.436-.916.924.01.505.425.901.942.895a.898.898 0 0 0 .904-.922.904.904 0 0 0-.93-.897z"/>
        <path d="M20.677 21.45c-.644-.287-1.235-.717-1.864-.783-.627-.065-1.285.296-1.941.363-1.996.204-3.786-.353-5.26-1.717-2.806-2.594-2.406-6.573.84-8.699 2.885-1.89 7.116-1.26 9.15 1.362 1.775 2.29 1.566 5.326-.601 7.248-.627.557-.853 1.015-.45 1.748.075.135.083.306.126.477zm-7.331-7.098a.76.76 0 0 0 .763-.726.763.763 0 0 0-.758-.79.771.771 0 0 0-.766.785c.014.404.354.73.761.731zm4.726-1.514a.757.757 0 0 0-.752.725.744.744 0 0 0 .742.783.738.738 0 0 0 .751-.719.752.752 0 0 0-.74-.789z"/>
    </g>
</svg>
